G04 Layer: TopSolderMaskLayer*
G04 EasyEDA v6.4.19.5, 2021-06-24T18:33:29+08:00*
G04 aead1162afaa444bbc7f75adb803ea33,99b1a7aa48a248eb80d1c8c93250a523,10*
G04 Gerber Generator version 0.2*
G04 Scale: 100 percent, Rotated: No, Reflected: No *
G04 Dimensions in millimeters *
G04 leading zeros omitted , absolute positions ,4 integer and 5 decimal *
%FSLAX45Y45*%
%MOMM*%

%ADD24C,1.6256*%
%ADD25C,1.7272*%
%ADD27C,2.0032*%
%ADD28C,1.8032*%
%ADD29C,2.6032*%
%ADD30C,1.7032*%
%ADD31C,2.2032*%

%LPD*%
D24*
G01*
X7831912Y14122400D03*
G01*
X7581900Y14122400D03*
G01*
X7331913Y14122400D03*
D25*
G01*
X8089900Y13512800D03*
G01*
X9105900Y13512800D03*
G01*
X8102600Y13030200D03*
G01*
X9118600Y13030200D03*
G36*
X5608065Y9481312D02*
G01*
X5608065Y9771634D01*
X5898134Y9771634D01*
X5898134Y9481312D01*
G37*
G36*
X4261865Y9481312D02*
G01*
X4261865Y9771634D01*
X4551934Y9771634D01*
X4551934Y9481312D01*
G37*
G36*
X4236465Y11640312D02*
G01*
X4236465Y11930634D01*
X4526534Y11930634D01*
X4526534Y11640312D01*
G37*
G36*
X5608065Y11640312D02*
G01*
X5608065Y11930634D01*
X5898134Y11930634D01*
X5898134Y11640312D01*
G37*
G36*
X4566665Y11640312D02*
G01*
X4566665Y11930634D01*
X4856734Y11930634D01*
X4856734Y11640312D01*
G37*
G36*
X5277865Y11640312D02*
G01*
X5277865Y11930634D01*
X5567934Y11930634D01*
X5567934Y11640312D01*
G37*
D27*
G01*
X8305800Y10071100D03*
G01*
X8051800Y10071100D03*
D25*
G01*
X1968500Y13525500D03*
G01*
X952500Y13525500D03*
G01*
X3581400Y13525500D03*
G01*
X2565400Y13525500D03*
G01*
X3581400Y12585700D03*
G01*
X2565400Y12585700D03*
G01*
X3581400Y13055600D03*
G01*
X2565400Y13055600D03*
D28*
G01*
X7404100Y13522197D03*
G01*
X7404100Y13122402D03*
D29*
G01*
X1960702Y12307646D03*
G01*
X1595297Y12660553D03*
G01*
X1960702Y10910646D03*
G01*
X1595297Y11263553D03*
G01*
X2659227Y11609146D03*
G01*
X2293772Y11962053D03*
G01*
X1262202Y11609146D03*
G01*
X896797Y11962053D03*
G01*
X7683500Y11798300D03*
G01*
X7175500Y11798300D03*
G01*
X9029700Y11798300D03*
G01*
X8521700Y11798300D03*
D30*
G01*
X3924300Y13804900D03*
G01*
X3924300Y13550900D03*
G01*
X3924300Y13296900D03*
G01*
X3924300Y13042900D03*
G01*
X3924300Y12788900D03*
G01*
X3924300Y12534900D03*
G01*
X3924300Y12280900D03*
G01*
X3924300Y12026900D03*
G01*
X3924300Y11772900D03*
G01*
X3924300Y11518900D03*
G01*
X3924300Y11264900D03*
G01*
X3924300Y11010900D03*
G01*
X6210300Y13804900D03*
G01*
X6210300Y13550900D03*
G01*
X6210300Y13296900D03*
G01*
X6210300Y13042900D03*
G01*
X6210300Y12788900D03*
G01*
X6210300Y12534900D03*
G01*
X6210300Y12280900D03*
G01*
X6210300Y11772900D03*
G01*
X6210300Y12026900D03*
G01*
X6210300Y11518900D03*
G01*
X6210300Y11264900D03*
G01*
X6210300Y11010900D03*
D31*
G01*
X5689600Y13982700D03*
G01*
X5439663Y13982700D03*
G01*
X5189474Y13982700D03*
G01*
X4939538Y13982700D03*
G01*
X4689602Y13982700D03*
G01*
X4439665Y13982700D03*
M02*
