G04 Layer: BottomLayer*
G04 EasyEDA v6.4.19.5, 2021-06-24T18:33:29+08:00*
G04 aead1162afaa444bbc7f75adb803ea33,99b1a7aa48a248eb80d1c8c93250a523,10*
G04 Gerber Generator version 0.2*
G04 Scale: 100 percent, Rotated: No, Reflected: No *
G04 Dimensions in millimeters *
G04 leading zeros omitted , absolute positions ,4 integer and 5 decimal *
%FSLAX45Y45*%
%MOMM*%

%ADD11C,0.2600*%
%ADD12C,0.6100*%
%ADD13C,1.5240*%
%ADD15C,1.8000*%
%ADD16C,1.6000*%
%ADD17C,2.4000*%
%ADD18C,1.5000*%
%ADD19C,2.0000*%

%LPD*%
D11*
X5689600Y13982700D02*
G01*
X5689600Y12547600D01*
X6210300Y12026900D01*
X5439663Y13982700D02*
G01*
X5439663Y12543536D01*
X6210300Y11772900D01*
X4689602Y13982700D02*
G01*
X4548377Y14123924D01*
X4379468Y14123924D01*
X4297679Y14041881D01*
X4297679Y12382500D01*
X4545838Y12134342D01*
X4545838Y11620245D01*
X4190491Y11264900D01*
X3924300Y11264900D01*
X4939538Y13982700D02*
G01*
X4755895Y14166342D01*
X4361941Y14166342D01*
X4031741Y13835887D01*
X4031741Y13150342D01*
X3924300Y13042900D01*
X1262126Y11609070D02*
G01*
X1960625Y12307570D01*
X1960625Y11090910D02*
G01*
X1960625Y10910570D01*
X2659125Y11609070D02*
G01*
X2479040Y11609070D01*
X1960625Y11090910D01*
X1960625Y11090910D02*
G01*
X1540255Y11090910D01*
X1262126Y11368786D01*
X1262126Y11609070D01*
X6210300Y13804900D02*
G01*
X6348729Y13666470D01*
X7025131Y13666470D01*
X7456931Y14098270D01*
X7456931Y14163039D01*
X7530084Y14236192D01*
X7874000Y14236192D01*
X7943088Y14167104D01*
X7943088Y12144502D01*
X8521700Y11798300D02*
G01*
X8175497Y12144502D01*
X7943088Y12144502D01*
X7943088Y12144502D02*
G01*
X7521702Y12144502D01*
X7175500Y11798300D01*
X2293874Y11962129D02*
G01*
X2293874Y12784074D01*
X2565400Y13055600D01*
X1595373Y11263629D02*
G01*
X1819147Y11263629D01*
X2853436Y12297663D01*
X3924300Y12280900D02*
G01*
X2870200Y12280900D01*
X2853436Y12297663D01*
X2853436Y12297663D02*
G01*
X2565400Y12585700D01*
X3924300Y12534900D02*
G01*
X2933700Y13525500D01*
X2565400Y13525500D01*
X1595373Y12660629D02*
G01*
X2460243Y13525500D01*
X2565400Y13525500D01*
X5788913Y11142218D02*
G01*
X5788913Y11255502D01*
X5422900Y11621262D01*
X5422900Y11785600D02*
G01*
X5422900Y11621262D01*
X4711700Y11785600D02*
G01*
X4876038Y11785600D01*
X8051800Y10071100D02*
G01*
X7277861Y10845037D01*
X5816345Y10845037D01*
X5816345Y10845037D01*
X4876038Y11785600D01*
X3924300Y13804900D02*
G01*
X3644900Y13525500D01*
X3581400Y13525500D01*
X3581400Y13055600D02*
G01*
X3581400Y13525500D01*
X3581400Y12585700D02*
G01*
X3759200Y12407900D01*
X3960622Y12407900D01*
X4381500Y11987021D01*
X4381500Y11785600D01*
X7683500Y11798300D02*
G01*
X7840218Y11641581D01*
X9090659Y11641581D01*
X9191752Y11742420D01*
X9191752Y12957047D01*
X9118600Y13030200D01*
X9029700Y11798300D02*
G01*
X9010904Y11817095D01*
X9010904Y13417804D01*
X9105900Y13512800D01*
X5917438Y11785600D02*
G01*
X6037325Y11665458D01*
X6251447Y11665458D01*
X7045197Y12459208D01*
X7045197Y13585697D01*
X7581900Y14122400D01*
X5753100Y11785600D02*
G01*
X5917438Y11785600D01*
X7831836Y14122400D02*
G01*
X7831836Y12669265D01*
X6210300Y11047729D01*
X6210300Y11010900D01*
X6210300Y11010900D02*
G01*
X5835650Y11010900D01*
X4439665Y12406884D01*
X4439665Y13982700D01*
X8102600Y13030200D02*
G01*
X8102600Y13500100D01*
X8089900Y13512800D01*
X6210300Y11264900D02*
G01*
X7404100Y12458700D01*
X7404100Y13122402D01*
X7404100Y13522197D02*
G01*
X7121143Y13239242D01*
X7121143Y12429744D01*
X6210300Y11518900D01*
D13*
G01*
X7831912Y14122400D03*
G01*
X7581900Y14122400D03*
G01*
X7331913Y14122400D03*
G01*
X8089900Y13512800D03*
G01*
X9105900Y13512800D03*
G01*
X8102600Y13030200D03*
G01*
X9118600Y13030200D03*
G36*
X5888098Y9491599D02*
G01*
X5888098Y9761598D01*
X5618099Y9761598D01*
X5618099Y9491599D01*
G37*
G36*
X4541898Y9491599D02*
G01*
X4541898Y9761598D01*
X4271899Y9761598D01*
X4271899Y9491599D01*
G37*
G36*
X4516498Y11650599D02*
G01*
X4516498Y11920598D01*
X4246499Y11920598D01*
X4246499Y11650599D01*
G37*
G36*
X5888098Y11650599D02*
G01*
X5888098Y11920598D01*
X5618099Y11920598D01*
X5618099Y11650599D01*
G37*
G36*
X4846698Y11650599D02*
G01*
X4846698Y11920598D01*
X4576699Y11920598D01*
X4576699Y11650599D01*
G37*
G36*
X5557898Y11650599D02*
G01*
X5557898Y11920598D01*
X5287899Y11920598D01*
X5287899Y11650599D01*
G37*
D15*
G01*
X8305800Y10071100D03*
G01*
X8051800Y10071100D03*
D13*
G01*
X1968500Y13525500D03*
G01*
X952500Y13525500D03*
G01*
X3581400Y13525500D03*
G01*
X2565400Y13525500D03*
G01*
X3581400Y12585700D03*
G01*
X2565400Y12585700D03*
G01*
X3581400Y13055600D03*
G01*
X2565400Y13055600D03*
D16*
G01*
X7404100Y13522197D03*
G01*
X7404100Y13122402D03*
D17*
G01*
X1960702Y12307646D03*
G01*
X1595297Y12660553D03*
G01*
X1960702Y10910646D03*
G01*
X1595297Y11263553D03*
G01*
X2659227Y11609146D03*
G01*
X2293772Y11962053D03*
G01*
X1262202Y11609146D03*
G01*
X896797Y11962053D03*
G01*
X7683500Y11798300D03*
G01*
X7175500Y11798300D03*
G01*
X9029700Y11798300D03*
G01*
X8521700Y11798300D03*
D18*
G01*
X3924300Y13804900D03*
G01*
X3924300Y13550900D03*
G01*
X3924300Y13296900D03*
G01*
X3924300Y13042900D03*
G01*
X3924300Y12788900D03*
G01*
X3924300Y12534900D03*
G01*
X3924300Y12280900D03*
G01*
X3924300Y12026900D03*
G01*
X3924300Y11772900D03*
G01*
X3924300Y11518900D03*
G01*
X3924300Y11264900D03*
G01*
X3924300Y11010900D03*
G01*
X6210300Y13804900D03*
G01*
X6210300Y13550900D03*
G01*
X6210300Y13296900D03*
G01*
X6210300Y13042900D03*
G01*
X6210300Y12788900D03*
G01*
X6210300Y12534900D03*
G01*
X6210300Y12280900D03*
G01*
X6210300Y11772900D03*
G01*
X6210300Y12026900D03*
G01*
X6210300Y11518900D03*
G01*
X6210300Y11264900D03*
G01*
X6210300Y11010900D03*
D19*
G01*
X5689600Y13982700D03*
G01*
X5439663Y13982700D03*
G01*
X5189474Y13982700D03*
G01*
X4939538Y13982700D03*
G01*
X4689602Y13982700D03*
G01*
X4439665Y13982700D03*
D12*
G01*
X5788913Y11142218D03*
M02*
