G04 Layer: TopSilkLayer*
G04 EasyEDA v6.4.19.5, 2021-06-24T18:33:29+08:00*
G04 aead1162afaa444bbc7f75adb803ea33,99b1a7aa48a248eb80d1c8c93250a523,10*
G04 Gerber Generator version 0.2*
G04 Scale: 100 percent, Rotated: No, Reflected: No *
G04 Dimensions in millimeters *
G04 leading zeros omitted , absolute positions ,4 integer and 5 decimal *
%FSLAX45Y45*%
%MOMM*%

%ADD10C,0.2540*%
%ADD20C,0.1270*%
%ADD21C,0.2032*%
%ADD22C,0.1524*%

%LPD*%
D21*
X7753604Y10665968D02*
G01*
X7753604Y10379455D01*
X7658100Y10665968D02*
G01*
X7849108Y10665968D01*
X7939024Y10665968D02*
G01*
X7939024Y10379455D01*
X7939024Y10665968D02*
G01*
X8061706Y10665968D01*
X8102600Y10652252D01*
X8116315Y10638536D01*
X8130031Y10611358D01*
X8130031Y10584179D01*
X8116315Y10556747D01*
X8102600Y10543286D01*
X8061706Y10529570D01*
X7939024Y10529570D02*
G01*
X8061706Y10529570D01*
X8102600Y10515854D01*
X8116315Y10502392D01*
X8130031Y10474960D01*
X8130031Y10434065D01*
X8116315Y10406887D01*
X8102600Y10393171D01*
X8061706Y10379455D01*
X7939024Y10379455D01*
X8288020Y10570463D02*
G01*
X8260841Y10556747D01*
X8233663Y10529570D01*
X8219947Y10488676D01*
X8219947Y10461497D01*
X8233663Y10420350D01*
X8260841Y10393171D01*
X8288020Y10379455D01*
X8328913Y10379455D01*
X8356345Y10393171D01*
X8383524Y10420350D01*
X8397240Y10461497D01*
X8397240Y10488676D01*
X8383524Y10529570D01*
X8356345Y10556747D01*
X8328913Y10570463D01*
X8288020Y10570463D01*
X8500872Y10570463D02*
G01*
X8582659Y10379455D01*
X8664447Y10570463D02*
G01*
X8582659Y10379455D01*
X8555481Y10325100D01*
X8528050Y10297668D01*
X8500872Y10284205D01*
X8487156Y10284205D01*
X8333740Y13542263D02*
G01*
X8342884Y13546836D01*
X8356600Y13560552D01*
X8356600Y13465047D01*
X8413750Y13560552D02*
G01*
X8400288Y13555979D01*
X8391143Y13542263D01*
X8386572Y13519657D01*
X8386572Y13505942D01*
X8391143Y13483336D01*
X8400288Y13469620D01*
X8413750Y13465047D01*
X8422893Y13465047D01*
X8436609Y13469620D01*
X8445754Y13483336D01*
X8450325Y13505942D01*
X8450325Y13519657D01*
X8445754Y13542263D01*
X8436609Y13555979D01*
X8422893Y13560552D01*
X8413750Y13560552D01*
X8480297Y13560552D02*
G01*
X8480297Y13465047D01*
X8543797Y13560552D02*
G01*
X8480297Y13496797D01*
X8502904Y13519657D02*
G01*
X8543797Y13465047D01*
X8346440Y13059663D02*
G01*
X8355584Y13064236D01*
X8369300Y13077952D01*
X8369300Y12982447D01*
X8426450Y13077952D02*
G01*
X8412988Y13073379D01*
X8403843Y13059663D01*
X8399272Y13037058D01*
X8399272Y13023342D01*
X8403843Y13000736D01*
X8412988Y12987020D01*
X8426450Y12982447D01*
X8435593Y12982447D01*
X8449309Y12987020D01*
X8458454Y13000736D01*
X8463025Y13023342D01*
X8463025Y13037058D01*
X8458454Y13059663D01*
X8449309Y13073379D01*
X8435593Y13077952D01*
X8426450Y13077952D01*
X8492997Y13077952D02*
G01*
X8492997Y12982447D01*
X8556497Y13077952D02*
G01*
X8492997Y13014197D01*
X8515604Y13037058D02*
G01*
X8556497Y12982447D01*
X1196339Y13554963D02*
G01*
X1205484Y13559536D01*
X1219200Y13573252D01*
X1219200Y13477747D01*
X1276350Y13573252D02*
G01*
X1262887Y13568679D01*
X1253744Y13554963D01*
X1249171Y13532357D01*
X1249171Y13518642D01*
X1253744Y13496036D01*
X1262887Y13482320D01*
X1276350Y13477747D01*
X1285494Y13477747D01*
X1299210Y13482320D01*
X1308354Y13496036D01*
X1312926Y13518642D01*
X1312926Y13532357D01*
X1308354Y13554963D01*
X1299210Y13568679D01*
X1285494Y13573252D01*
X1276350Y13573252D01*
X1342897Y13573252D02*
G01*
X1342897Y13477747D01*
X1406397Y13573252D02*
G01*
X1342897Y13509497D01*
X1365504Y13532357D02*
G01*
X1406397Y13477747D01*
X2809240Y13554963D02*
G01*
X2818384Y13559536D01*
X2832100Y13573252D01*
X2832100Y13477747D01*
X2889250Y13573252D02*
G01*
X2875788Y13568679D01*
X2866643Y13554963D01*
X2862072Y13532357D01*
X2862072Y13518642D01*
X2866643Y13496036D01*
X2875788Y13482320D01*
X2889250Y13477747D01*
X2898393Y13477747D01*
X2912109Y13482320D01*
X2921254Y13496036D01*
X2925825Y13518642D01*
X2925825Y13532357D01*
X2921254Y13554963D01*
X2912109Y13568679D01*
X2898393Y13573252D01*
X2889250Y13573252D01*
X2955797Y13573252D02*
G01*
X2955797Y13477747D01*
X3019297Y13573252D02*
G01*
X2955797Y13509497D01*
X2978404Y13532357D02*
G01*
X3019297Y13477747D01*
X2809240Y12615163D02*
G01*
X2818384Y12619736D01*
X2832100Y12633452D01*
X2832100Y12537947D01*
X2889250Y12633452D02*
G01*
X2875788Y12628879D01*
X2866643Y12615163D01*
X2862072Y12592558D01*
X2862072Y12578842D01*
X2866643Y12556236D01*
X2875788Y12542520D01*
X2889250Y12537947D01*
X2898393Y12537947D01*
X2912109Y12542520D01*
X2921254Y12556236D01*
X2925825Y12578842D01*
X2925825Y12592558D01*
X2921254Y12615163D01*
X2912109Y12628879D01*
X2898393Y12633452D01*
X2889250Y12633452D01*
X2955797Y12633452D02*
G01*
X2955797Y12537947D01*
X3019297Y12633452D02*
G01*
X2955797Y12569697D01*
X2978404Y12592558D02*
G01*
X3019297Y12537947D01*
X2809240Y13085063D02*
G01*
X2818384Y13089636D01*
X2832100Y13103352D01*
X2832100Y13007847D01*
X2889250Y13103352D02*
G01*
X2875788Y13098779D01*
X2866643Y13085063D01*
X2862072Y13062458D01*
X2862072Y13048742D01*
X2866643Y13026136D01*
X2875788Y13012420D01*
X2889250Y13007847D01*
X2898393Y13007847D01*
X2912109Y13012420D01*
X2921254Y13026136D01*
X2925825Y13048742D01*
X2925825Y13062458D01*
X2921254Y13085063D01*
X2912109Y13098779D01*
X2898393Y13103352D01*
X2889250Y13103352D01*
X2955797Y13103352D02*
G01*
X2955797Y13007847D01*
X3019297Y13103352D02*
G01*
X2955797Y13039597D01*
X2978404Y13062458D02*
G01*
X3019297Y13007847D01*
D22*
X7378700Y13945616D02*
G01*
X7378700Y13836650D01*
X7378700Y13945616D02*
G01*
X7425436Y13945616D01*
X7440929Y13940536D01*
X7446263Y13935202D01*
X7451343Y13924787D01*
X7451343Y13914374D01*
X7446263Y13903960D01*
X7440929Y13898879D01*
X7425436Y13893800D01*
X7378700Y13893800D02*
G01*
X7425436Y13893800D01*
X7440929Y13888466D01*
X7446263Y13883386D01*
X7451343Y13872971D01*
X7451343Y13857224D01*
X7446263Y13846810D01*
X7440929Y13841729D01*
X7425436Y13836650D01*
X7378700Y13836650D01*
X7485634Y13945616D02*
G01*
X7485634Y13867637D01*
X7490968Y13852144D01*
X7501381Y13841729D01*
X7516875Y13836650D01*
X7527290Y13836650D01*
X7542784Y13841729D01*
X7553197Y13852144D01*
X7558531Y13867637D01*
X7558531Y13945616D01*
X7665465Y13945616D02*
G01*
X7592822Y13836650D01*
X7592822Y13945616D02*
G01*
X7665465Y13945616D01*
X7592822Y13836650D02*
G01*
X7665465Y13836650D01*
X7772400Y13945616D02*
G01*
X7699756Y13836650D01*
X7699756Y13945616D02*
G01*
X7772400Y13945616D01*
X7699756Y13836650D02*
G01*
X7772400Y13836650D01*
X7806690Y13945616D02*
G01*
X7806690Y13836650D01*
X7806690Y13945616D02*
G01*
X7874254Y13945616D01*
X7806690Y13893800D02*
G01*
X7848345Y13893800D01*
X7806690Y13836650D02*
G01*
X7874254Y13836650D01*
X7908543Y13945616D02*
G01*
X7908543Y13836650D01*
X7908543Y13945616D02*
G01*
X7955279Y13945616D01*
X7971027Y13940536D01*
X7976108Y13935202D01*
X7981441Y13924787D01*
X7981441Y13914374D01*
X7976108Y13903960D01*
X7971027Y13898879D01*
X7955279Y13893800D01*
X7908543Y13893800D01*
X7945120Y13893800D02*
G01*
X7981441Y13836650D01*
X2141029Y12889095D02*
G01*
X2086858Y12833002D01*
X2079752Y12818328D01*
X2080006Y12803601D01*
X2087808Y12789009D01*
X2095296Y12781775D01*
X2109970Y12774665D01*
X2124697Y12774922D01*
X2139114Y12782539D01*
X2193282Y12838633D01*
X2217950Y12814813D02*
G01*
X2142256Y12736428D01*
X2217950Y12814813D02*
G01*
X2251570Y12782346D01*
X2259368Y12767754D01*
X2259317Y12760385D01*
X2255918Y12749189D01*
X2245156Y12738044D01*
X2234084Y12734259D01*
X2226901Y12734135D01*
X2211870Y12741236D01*
X2178250Y12773700D01*
X2141026Y11492092D02*
G01*
X2065337Y11413708D01*
X2141026Y11492092D02*
G01*
X2167155Y11466865D01*
X2174956Y11452268D01*
X2175029Y11437721D01*
X2171631Y11426525D01*
X2164346Y11411666D01*
X2146348Y11393030D01*
X2131933Y11385415D01*
X2120861Y11381630D01*
X2106317Y11381193D01*
X2091461Y11388481D01*
X2065337Y11413708D01*
X2240424Y11396108D02*
G01*
X2229401Y11399692D01*
X2214676Y11399433D01*
X2203790Y11395471D01*
X2189012Y11387846D01*
X2171014Y11369212D01*
X2164090Y11354361D01*
X2160508Y11343340D01*
X2160765Y11328615D01*
X2164730Y11317726D01*
X2179711Y11303256D01*
X2190732Y11299680D01*
X2205456Y11299936D01*
X2216345Y11303896D01*
X2230945Y11311336D01*
X2248941Y11329974D01*
X2256043Y11345009D01*
X2259624Y11356027D01*
X2259368Y11370751D01*
X2255403Y11381640D01*
X2240424Y11396108D01*
X2302543Y11336121D02*
G01*
X2245486Y11239738D01*
X2339817Y11300124D02*
G01*
X2245486Y11239738D01*
X2339817Y11300124D02*
G01*
X2282761Y11203746D01*
X2377274Y11263952D02*
G01*
X2282761Y11203746D01*
X2401940Y11240135D02*
G01*
X2326246Y11161748D01*
X2401940Y11240135D02*
G01*
X2378499Y11111288D01*
X2454196Y11189672D02*
G01*
X2378499Y11111288D01*
X2839529Y12190595D02*
G01*
X2763832Y12112210D01*
X2839529Y12190595D02*
G01*
X2873146Y12158129D01*
X2880763Y12143714D01*
X2880893Y12136168D01*
X2877311Y12125147D01*
X2870080Y12117659D01*
X2859194Y12113694D01*
X2851828Y12113747D01*
X2837152Y12120857D01*
X2803532Y12153323D01*
X2829659Y12128091D02*
G01*
X2816087Y12061748D01*
X2916450Y12116315D02*
G01*
X2840756Y12037928D01*
X2979211Y12019686D02*
G01*
X2982790Y12030707D01*
X2982536Y12045434D01*
X2978571Y12056320D01*
X2963590Y12070791D01*
X2952569Y12074370D01*
X2937845Y12074113D01*
X2926956Y12070148D01*
X2912181Y12062526D01*
X2894180Y12043892D01*
X2887253Y12029041D01*
X2883674Y12018020D01*
X2883933Y12003295D01*
X2887896Y11992406D01*
X2902879Y11977938D01*
X2913895Y11974360D01*
X2928625Y11974614D01*
X2939511Y11978573D01*
X2950273Y11989722D01*
X2931637Y12007720D02*
G01*
X2950273Y11989722D01*
X3021876Y12014504D02*
G01*
X2946179Y11936122D01*
X3074311Y11963867D02*
G01*
X2998619Y11885482D01*
X2985879Y11977235D02*
G01*
X3038320Y11926592D01*
X3125106Y11914814D02*
G01*
X3049412Y11836433D01*
X3098980Y11940044D02*
G01*
X3151238Y11889582D01*
X1442526Y12190592D02*
G01*
X1366832Y12112210D01*
X1366832Y12112210D02*
G01*
X1411597Y12068982D01*
X1511957Y12123546D02*
G01*
X1436263Y12045162D01*
X1511957Y12123546D02*
G01*
X1560560Y12076612D01*
X1475963Y12086272D02*
G01*
X1505927Y12057336D01*
X1436263Y12045162D02*
G01*
X1484863Y11998228D01*
X1585224Y12052792D02*
G01*
X1509529Y11974408D01*
X1585224Y12052792D02*
G01*
X1633824Y12005858D01*
X1549232Y12015518D02*
G01*
X1579196Y11986582D01*
X1684621Y11956808D02*
G01*
X1608927Y11878424D01*
X1658493Y11982038D02*
G01*
X1710931Y11931398D01*
X7409306Y12341809D02*
G01*
X7409306Y12232843D01*
X7409306Y12341809D02*
G01*
X7456043Y12341809D01*
X7471536Y12336729D01*
X7476870Y12331395D01*
X7481950Y12320981D01*
X7481950Y12310567D01*
X7476870Y12300153D01*
X7471536Y12295073D01*
X7456043Y12289993D01*
X7409306Y12289993D02*
G01*
X7456043Y12289993D01*
X7471536Y12284659D01*
X7476870Y12279579D01*
X7481950Y12269165D01*
X7481950Y12253417D01*
X7476870Y12243003D01*
X7471536Y12237923D01*
X7456043Y12232843D01*
X7409306Y12232843D01*
X8797163Y12341809D02*
G01*
X8755506Y12232843D01*
X8797163Y12341809D02*
G01*
X8838565Y12232843D01*
X8771000Y12269165D02*
G01*
X8823070Y12269165D01*
X5092700Y14707616D02*
G01*
X5092700Y14629637D01*
X5097779Y14614144D01*
X5108193Y14603729D01*
X5123941Y14598650D01*
X5134356Y14598650D01*
X5149850Y14603729D01*
X5160263Y14614144D01*
X5165343Y14629637D01*
X5165343Y14707616D01*
X5199634Y14686787D02*
G01*
X5210047Y14692121D01*
X5225795Y14707616D01*
X5225795Y14598650D01*
X6084315Y14033500D02*
G01*
X5975350Y13960855D01*
X6084315Y13960855D02*
G01*
X5975350Y14033500D01*
X6063488Y13926566D02*
G01*
X6068822Y13916152D01*
X6084315Y13900404D01*
X5975350Y13900404D01*
D10*
X9222892Y13642797D02*
G01*
X7972882Y13642797D01*
X7972882Y13382802D01*
X9222892Y13382802D01*
X9222892Y13642797D01*
X9235592Y13160197D02*
G01*
X7985582Y13160197D01*
X7985582Y12900202D01*
X9235592Y12900202D01*
X9235592Y13160197D01*
X2085492Y13655497D02*
G01*
X835482Y13655497D01*
X835482Y13395502D01*
X2085492Y13395502D01*
X2085492Y13655497D01*
X3698392Y13655497D02*
G01*
X2448382Y13655497D01*
X2448382Y13395502D01*
X3698392Y13395502D01*
X3698392Y13655497D01*
X3698392Y12715697D02*
G01*
X2448382Y12715697D01*
X2448382Y12455702D01*
X3698392Y12455702D01*
X3698392Y12715697D01*
X3698392Y13185597D02*
G01*
X2448382Y13185597D01*
X2448382Y12925602D01*
X3698392Y12925602D01*
X3698392Y13185597D01*
X7353300Y13677900D02*
G01*
X7454900Y13677900D01*
X7404100Y13728700D02*
G01*
X7404100Y13627100D01*
X1768596Y13022834D02*
G01*
X2316734Y12493503D01*
X1787403Y11945365D01*
X1239265Y12474696D01*
X1768596Y13022834D01*
X1768596Y11625831D02*
G01*
X2316731Y11096503D01*
X1787403Y10548368D01*
X1239268Y11077696D01*
X1768596Y11625831D01*
X2467096Y12324334D02*
G01*
X3015234Y11795003D01*
X2485903Y11246865D01*
X1937765Y11776196D01*
X2467096Y12324334D01*
X1070094Y12324331D02*
G01*
X1618231Y11795005D01*
X1088905Y11246868D01*
X540768Y11776194D01*
X1070094Y12324331D01*
X7048500Y12179300D02*
G01*
X7810500Y12179300D01*
X7810500Y11417300D01*
X7048500Y11417300D01*
X7048500Y12179300D01*
X8394700Y12179300D02*
G01*
X9156700Y12179300D01*
X9156700Y11417300D01*
X8394700Y11417300D01*
X8394700Y12179300D01*
D20*
X3816350Y14566900D02*
G01*
X6326352Y14566900D01*
X6326352Y9426905D01*
X3816350Y9426905D01*
X3816350Y14566900D01*
X4254500Y13925550D02*
G01*
X5905500Y13925550D01*
X5905500Y11099800D01*
X4254500Y11099800D01*
X4254500Y13925550D01*
D10*
X4584700Y10058400D02*
G01*
X5562600Y10058400D01*
X5562600Y9423400D01*
X4584700Y9423400D01*
X4584700Y10058400D01*
X4711700Y10769600D02*
G01*
X5422900Y10769600D01*
X5422900Y10375900D01*
X4711700Y10375900D01*
X4711700Y10769600D01*
X6057900Y10782300D02*
G01*
X6324600Y10782300D01*
X6324600Y10274300D01*
X6057900Y10274300D01*
X6057900Y10782300D01*
X6261100Y10629900D02*
G01*
X6388100Y10629900D01*
X6388100Y10439400D01*
X6261100Y10439400D01*
X6261100Y10629900D01*
X4188612Y14307693D02*
G01*
X4189602Y13732687D01*
X5937605Y14306702D02*
G01*
X4188612Y14307693D01*
X4189602Y13732687D02*
G01*
X5939586Y13732687D01*
X5939586Y13732687D02*
G01*
X5940602Y14307693D01*
G75*
G01
X7864094Y13322300D02*
G03X7864094Y13322300I-459994J0D01*
G75*
G01
X7454900Y13677900D02*
G03X7454900Y13677900I-50800J0D01*
G75*
G01
X7480300Y13322300D02*
G03X7480300Y13322300I-76200J0D01*
G75*
G01
X1953006Y12484100D02*
G03X1953006Y12484100I-175006J0D01*
G75*
G01
X1852930Y12484100D02*
G03X1852930Y12484100I-74930J0D01*
G75*
G01
X1953006Y11087100D02*
G03X1953006Y11087100I-175006J0D01*
G75*
G01
X1852930Y11087100D02*
G03X1852930Y11087100I-74930J0D01*
G75*
G01
X2651506Y11785600D02*
G03X2651506Y11785600I-175006J0D01*
G75*
G01
X2551430Y11785600D02*
G03X2551430Y11785600I-74930J0D01*
G75*
G01
X1254506Y11785600D02*
G03X1254506Y11785600I-175006J0D01*
G75*
G01
X1154430Y11785600D02*
G03X1154430Y11785600I-74930J0D01*
G75*
G01
X7604506Y11798300D02*
G03X7604506Y11798300I-175006J0D01*
G75*
G01
X7504430Y11798300D02*
G03X7504430Y11798300I-74930J0D01*
G75*
G01
X8950706Y11798300D02*
G03X8950706Y11798300I-175006J0D01*
G75*
G01
X8850630Y11798300D02*
G03X8850630Y11798300I-74930J0D01*
M02*
