M48
METRIC,LZ,000.000
;FILE_FORMAT=3:3
;TYPE=PLATED
;Layer: Drill PTH
;EasyEDA v6.4.19.5, 2021-06-24T18:33:29+08:00
;aead1162afaa444bbc7f75adb803ea33,99b1a7aa48a248eb80d1c8c93250a523,10
;Gerber Generator version 0.2
;Holesize 1 = 0.310 mm
T01C0.310
;Holesize 2 = 0.800 mm
T02C0.800
;Holesize 3 = 0.901 mm
T03C0.901
;Holesize 4 = 0.915 mm
T04C0.915
;Holesize 5 = 1.000 mm
T05C1.000
;Holesize 6 = 1.001 mm
T06C1.001
;Holesize 7 = 1.199 mm
T07C1.199
;Holesize 8 = 1.200 mm
T08C1.200
%
G05
G90
T01
X057889Y111422
T02
X056896Y139827
X054397Y139827
X051895Y139827
X049395Y139827
X046896Y139827
X044397Y139827
T03
X080899Y135128
X091059Y135128
X081026Y130302
X091186Y130302
X019685Y135255
X009525Y135255
X035814Y135255
X025654Y135255
X035814Y125857
X025654Y125857
X025654Y130556
T04
X078319Y141224
X075819Y141224
X073319Y141224
X035814Y130556
X039243Y138049
X039243Y135509
X039243Y132969
X039243Y130429
X039243Y127889
X039243Y125349
X039243Y122809
X039243Y120269
X039243Y117729
X039243Y115189
X039243Y112649
X039243Y110109
X062103Y138049
X062103Y135509
X062103Y132969
X062103Y130429
X062103Y127889
X062103Y125349
X062103Y122809
X062103Y117729
X062103Y120269
X062103Y115189
X062103Y112649
X062103Y110109
T05
X074041Y135222
X074041Y131224
T06
X057531Y096266
X044069Y096266
X043815Y117856
X057531Y117856
X047117Y117856
X054229Y117856
T07
X083058Y100711
X080518Y100711
T08
X019607Y123077
X015953Y126605
X019607Y109107
X015953Y112635
X026592Y116092
X022938Y119620
X012622Y116092
X008968Y119620
X076835Y117983
X071755Y117983
X090297Y117983
X085217Y117983
M30
